<?xml version="1.0" encoding="utf-8"?>
<!-- Generator: Adobe Illustrator 25.3.0, SVG Export Plug-In . SVG Version: 6.00 Build 0)  -->
<svg version="1.1" id="Layer_1" xmlns="http://www.w3.org/2000/svg" xmlns:xlink="http://www.w3.org/1999/xlink" x="0px" y="0px"
	 viewBox="0 0 461.84 169.73" style="enable-background:new 0 0 461.84 169.73;" xml:space="preserve">
<style type="text/css">
	.st0{fill:#6FBF4A;}
	.st1{fill:#73AFB6;}
	.st2{fill:#0C223F;}
	.st3{fill:#808285;}
	.st4{fill:none;}
</style>
<polyline class="st0" points="71.59,27.95 56.5,27.95 33.04,52.74 33.04,27.95 21.1,27.95 21.1,83.76 33.04,83.76 33.04,67.56 
	39.91,60.5 57.55,83.76 72.15,83.76 48.12,52.23 71.59,27.95 "/>
<polyline class="st0" points="88.16,61.1 114.84,61.1 114.84,50.15 88.16,50.15 88.16,38.91 118.26,38.91 118.26,27.95 76.21,27.95 
	76.21,83.76 118.64,83.76 118.64,72.8 88.16,72.8 88.16,61.1 "/>
<polyline class="st0" points="175.18,39.26 192.05,39.26 192.05,83.81 204.07,83.81 204.07,39.26 220.95,39.26 220.95,28 175.18,28 
	175.18,39.26 "/>
<path class="st0" d="M274.31,46.25V46.1c0-4.89-1.65-9.17-4.8-12.41c-3.81-3.72-9.43-5.69-16.26-5.69h-25.01v55.81h11.94V65.26h9.74
	l13.08,18.55h14.21l-14.8-20.75C270.1,60.26,274.31,54.35,274.31,46.25 M240.18,39.11h12.31c3.63,0,9.73,0.98,9.73,7.52v0.15
	c0,4.69-3.7,7.6-9.65,7.6h-12.38V39.11z"/>
<path class="st0" d="M318.54,59.94c0,8.72-4.29,13.53-12.08,13.53c-7.84,0-12.16-4.94-12.16-13.91V28h-11.95v31.93
	c0,15.47,8.95,24.71,23.95,24.71c15.37,0,24.18-9.17,24.18-25.17V28h-11.94V59.94"/>
<path class="st0" d="M391.45,55.76c0-16.08-12.43-27.75-29.57-27.75h-21.14v55.81h21.14c17.14,0,29.57-11.73,29.57-27.9V55.76
	 M352.69,39.11h9.19c10.11,0,17.17,6.91,17.17,16.8v0.15c0,9.96-6.9,16.64-17.17,16.64h-9.19V39.11z"/>
<polyline class="st1" points="138.08,37.04 138.08,54.78 134.31,50.64 134.31,41.19 138.08,37.04 "/>
<polyline class="st2" points="138.11,48.54 119.76,28.37 125.09,28.37 138.11,42.68 138.11,48.54 "/>
<polyline class="st1" points="138.08,68.5 138.08,82.58 134.31,78.44 134.31,72.64 138.08,68.5 "/>
<polyline class="st1" points="138.94,59.28 138.94,68.51 135.18,64.37 135.18,63.42 138.94,59.28 "/>
<polyline class="st0" points="154.54,47.88 172.88,27.71 167.56,27.71 154.54,42.02 154.54,47.88 "/>
<polyline class="st0" points="146.05,51.63 146.05,38.04 127.11,17.22 114.75,17.22 137.31,42.02 137.31,84.3 146.05,91.29 
	146.05,51.63 "/>
<polyline class="st2" points="146.01,51.63 146.01,38.04 154.75,28.43 164.95,17.22 177.32,17.22 154.75,42.02 154.75,84.3 
	146.01,91.29 146.01,51.63 "/>
<path class="st0" d="M425.98,27.65h-10.36l-24.55,56.19h12.42l5.47-12.85h23.44l5.4,12.85h12.73L425.98,27.65 M427.87,60.11h-14.38
	l7.16-16.71L427.87,60.11z"/>
<g>
	<path class="st3" d="M24.39,118.45l0.11-0.06c1.82-3.08,4.67-4.4,6.95-4.4c9,0,9.06,8.68,9.06,12.83v7.11
		c0,8.24-2.56,13.08-9.91,13.08c-2.11,0-4.21-1.13-5.98-4.15l-0.11-0.06v15.6h-3.42v-43.77h3.3V118.45z M24.5,133.29
		c0,7.23,2.96,10.69,6.09,10.69c5.64,0,6.49-5.22,6.49-13.52c0-8.24-0.85-13.46-6.49-13.46c-2.22,0-6.09,2.77-6.09,10.63V133.29z"/>
	<path class="st3" d="M48.65,131.28v2.45c0,4.4,1.08,10.25,6.5,10.25c4.27,0,6.38-3.02,6.32-7.29h3.59
		c-0.4,7.67-4.16,10.31-9.91,10.31c-4.96,0-9.91-2.2-9.91-11.82v-7.8c0-9.18,3.48-13.4,9.91-13.4c9.91,0,9.91,7.86,9.91,17.29H48.65
		z M61.64,128.26c0-7.04-1.03-11.26-6.49-11.26c-5.47,0-6.5,4.21-6.5,11.26H61.64z"/>
	<path class="st3" d="M314.35,131.28v2.45c0,4.4,1.08,10.25,6.5,10.25c4.27,0,6.38-3.02,6.32-7.29h3.59
		c-0.4,7.67-4.16,10.31-9.91,10.31c-4.96,0-9.91-2.2-9.91-11.82v-7.8c0-9.18,3.48-13.4,9.91-13.4c9.91,0,9.91,7.86,9.91,17.29
		H314.35z M327.34,128.26c0-7.04-1.03-11.26-6.49-11.26c-5.47,0-6.5,4.21-6.5,11.26H327.34z"/>
	<path class="st3" d="M72.97,146.37h-3.42v-31.82h3.08v3.96h0.11c1.37-2.58,3.65-4.53,6.84-4.53c2.96,0,5.58,1.82,6.55,4.97
		c1.42-3.14,3.88-4.97,7.06-4.97c4.78,0,7.29,3.65,7.46,8.74v23.65h-3.42v-22.7c-0.06-3.15-1.08-6.67-4.44-6.67
		c-4.33,0-5.98,4.78-5.98,8.93v20.44H83.4v-22.7c-0.06-3.15-1.08-6.67-4.44-6.67c-4.33,0-5.98,4.78-5.98,8.93V146.37z"/>
	<path class="st3" d="M105.16,146.37c0.17-1.07,0.34-2.08,0.34-3.15v-42.26h3.42v17.23l0.11,0.13c1.77-3.02,4.04-4.34,7.29-4.34
		c9.34,0,8.6,10.82,8.6,16.48c0,6.98-0.51,16.54-8.89,16.54c-3.36,0-5.81-1.51-7.24-4.47h-0.11v3.84H105.16z M115.01,143.98
		c6.32,0,6.49-5.97,6.49-13.39c0-7.42-0.17-13.58-6.49-13.58c-5.52,0-6.21,8.24-6.21,13.02C108.8,135.05,108.8,143.98,115.01,143.98
		"/>
	<path class="st3" d="M133.01,118.89h0.11c1.43-3.02,4.44-4.91,7.92-4.91v3.84c-4.84-0.44-8.03,2.77-8.03,8.11v20.44h-3.42v-31.76
		h3.42V118.89z"/>
	<path class="st3" d="M143.03,133.92v-6.85c0-8.24,3.19-13.08,9.91-13.08c6.72,0,9.91,4.84,9.91,13.08v6.85
		c0,8.24-3.19,13.08-9.91,13.08C146.22,147,143.03,142.16,143.03,133.92 M146.45,130.46c0,8.3,0.85,13.52,6.5,13.52
		c5.64,0,6.49-5.22,6.49-13.52c0-8.24-0.85-13.46-6.49-13.46C147.31,117,146.45,122.22,146.45,130.46"/>
	<rect x="167.36" y="100.97" class="st3" width="3.42" height="45.41"/>
	<path class="st3" d="M175.33,100.97h4.22v4.78h-4.22V100.97z M175.73,114.61h3.42v31.76h-3.42V114.61z"/>
	<polygon class="st3" points="183.76,143.29 195.72,117.63 184.44,117.63 184.44,114.61 199.2,114.61 199.2,117.76 187.52,143.35 
		199.48,143.35 199.48,146.37 183.76,146.37 	"/>
	<path class="st3" d="M222.15,114.61v31.76h-2.96v-3.52h-0.11c-1.99,2.7-4.05,4.15-7.24,4.15c-5.92,0-7.58-4.78-7.58-9.94v-22.45
		h3.42v21.82c0,0.88-0.17,7.55,4.79,7.55c4.61,0,6.27-4.78,6.27-6.98v-22.39H222.15z"/>
	<path class="st3" d="M230.58,146.37h-3.42v-31.82h3.08v3.96h0.11c1.37-2.58,3.65-4.53,6.84-4.53c2.96,0,5.58,1.82,6.55,4.97
		c1.42-3.14,3.88-4.97,7.06-4.97c4.78,0,7.29,3.65,7.46,8.74v23.65h-3.42v-22.7c-0.06-3.15-1.08-6.67-4.44-6.67
		c-4.33,0-5.98,4.78-5.98,8.93v20.44h-3.42v-22.7c-0.06-3.15-1.08-6.67-4.44-6.67c-4.33,0-5.98,4.78-5.98,8.93V146.37z"/>
	<path class="st3" d="M279.23,142.47h-0.11c-1.82,3.02-4.62,4.53-8.15,4.53c-5.13,0-7.92-3.84-7.92-9.37
		c0-11.13,10.14-10,15.95-10.5v-2.64c0-4.65-1.25-7.48-5.81-7.48c-3.13,0-5.64,1.7-5.64,5.47h-3.65c0.28-6.1,4.56-8.49,9.57-8.49
		c2.91,0,8.94,0.31,8.94,8.43v15.97c0,2.26,0,4.28,0.34,7.99h-3.53V142.47z M279,130.15c-4.9,0.19-12.3-0.44-12.3,7.3
		c0,3.59,1.65,6.54,5.18,6.54c3.93,0,7.12-3.9,7.12-8.05V130.15z"/>
	<path class="st3" d="M287.26,146.37c0.17-1.07,0.34-2.08,0.34-3.15v-42.26h3.42v17.23l0.12,0.13c1.76-3.02,4.04-4.34,7.29-4.34
		c9.34,0,8.6,10.82,8.6,16.48c0,6.98-0.51,16.54-8.89,16.54c-3.36,0-5.81-1.51-7.24-4.47h-0.11v3.84H287.26z M297.11,143.98
		c6.32,0,6.49-5.97,6.49-13.39c0-7.42-0.17-13.58-6.49-13.58c-5.53,0-6.21,8.24-6.21,13.02C290.9,135.05,290.9,143.98,297.11,143.98
		"/>
</g>
<rect x="118.02" y="17.41" class="st4" width="65.81" height="74.19"/>
<g>
	<path class="st0" d="M454.3,33.36c0,4-3.08,7.08-7.08,7.08c-4,0-7.17-3.08-7.17-7.08c0-3.92,3.17-7,7.22-7
		C451.22,26.36,454.3,29.44,454.3,33.36z M441.58,33.36c0,3.26,2.42,5.81,5.68,5.81c3.12,0.04,5.5-2.55,5.5-5.77
		c0-3.21-2.38-5.81-5.59-5.81C444,27.59,441.58,30.19,441.58,33.36z M445.94,37.23h-1.36v-7.35c0.75-0.13,1.54-0.22,2.55-0.22
		c1.23,0,1.85,0.22,2.29,0.57c0.44,0.31,0.75,0.88,0.75,1.58c0,0.88-0.66,1.45-1.41,1.72v0.09c0.62,0.26,0.97,0.84,1.19,1.8
		c0.22,1.1,0.4,1.54,0.57,1.8h-1.41c-0.22-0.26-0.4-0.92-0.62-1.89c-0.18-0.84-0.66-1.19-1.67-1.19h-0.88V37.23z M445.94,33.09h0.92
		c0.97,0,1.89-0.31,1.89-1.14c0-0.7-0.48-1.23-1.76-1.23c-0.53,0-0.84,0.04-1.06,0.09V33.09z"/>
</g>
</svg>
